STARTFONT 2.1
FONT -HP-Pilgi-Bold-R-Normal--16-160-75-75-C-80-KSC5636.1989-0
SIZE 16 75 75
FONTBOUNDINGBOX 8 16 0 -1

STARTPROPERTIES 23
FONTNAME_REGISTRY ""
FOUNDRY "HP"
FAMILY_NAME "Pilgi"
WEIGHT_NAME "Bold"
SLANT "R"
SETWIDTH_NAME "Normal"
ADD_STYLE_NAME ""
PIXEL_SIZE 16
POINT_SIZE 160
RESOLUTION_X 75
RESOLUTION_Y 75
SPACING "C"
AVERAGE_WIDTH 80
CHARSET_REGISTRY "KSC5636.1989"
CHARSET_ENCODING "0"
COPYRIGHT "Copyright (c) 1994 Samsung Hewlett-Packard Company."
WEIGHT 145
X_HEIGHT 15
QUAD_WIDTH 8
_HP_ASXVERSION "@(#) ASX 3.00 $Revision: 13.9 $ pilB16a"
DEFAULT_CHAR 32
FONT_DESCENT 1
FONT_ASCENT 15
ENDPROPERTIES

CHARS 256

STARTCHAR CODE000
ENCODING 0
SWIDTH 401 0
DWIDTH 8 0
BBX 8 16 0 -1
BITMAP
00
00
00
00
00
00
00
00
00
00
00
00
00
00
00
00
ENDCHAR

STARTCHAR CODE001
ENCODING 1
SWIDTH 401 0
DWIDTH 8 0
BBX 8 16 0 -1
BITMAP
00
00
3E
63
C1
B5
B5
C1
C1
B5
DD
C1
63
3E
00
00
ENDCHAR

STARTCHAR CODE002
ENCODING 2
SWIDTH 401 0
DWIDTH 8 0
BBX 8 16 0 -1
BITMAP
00
00
3E
7F
FF
DB
DB
FF
FF
DB
F7
FF
7F
3E
00
00
ENDCHAR

STARTCHAR CODE003
ENCODING 3
SWIDTH 401 0
DWIDTH 8 0
BBX 8 16 0 -1
BITMAP
00
37
7F
7F
7F
7F
7F
7F
3F
3F
3F
1E
1E
0C
0C
00
ENDCHAR

STARTCHAR CODE004
ENCODING 4
SWIDTH 401 0
DWIDTH 8 0
BBX 8 16 0 -1
BITMAP
00
0C
0C
1E
1E
3F
3F
7F
7F
3F
3F
1E
1E
0C
0C
00
ENDCHAR

STARTCHAR CODE005
ENCODING 5
SWIDTH 401 0
DWIDTH 8 0
BBX 8 16 0 -1
BITMAP
00
1E
3F
3F
3F
1E
3F
7F
7F
7F
7F
3F
0C
0C
1E
00
ENDCHAR

STARTCHAR CODE006
ENCODING 6
SWIDTH 401 0
DWIDTH 8 0
BBX 8 16 0 -1
BITMAP
00
0C
0C
1E
1E
3F
3F
7F
7F
7F
7F
3F
0C
0C
1E
00
ENDCHAR

STARTCHAR CODE007
ENCODING 7
SWIDTH 401 0
DWIDTH 8 0
BBX 8 16 0 -1
BITMAP
00
00
00
00
00
3E
7F
7F
7F
7F
3E
00
00
00
00
00
ENDCHAR

STARTCHAR CODE008
ENCODING 8
SWIDTH 401 0
DWIDTH 8 0
BBX 8 16 0 -1
BITMAP
00
00
FF
FF
FF
E3
C1
C1
C1
C1
E3
FF
FF
FF
00
00
ENDCHAR

STARTCHAR CODE009
ENCODING 9
SWIDTH 401 0
DWIDTH 8 0
BBX 8 16 0 -1
BITMAP
00
00
00
00
00
3E
63
63
63
63
3E
00
00
00
00
00
ENDCHAR

STARTCHAR CODE010
ENCODING 10
SWIDTH 401 0
DWIDTH 8 0
BBX 8 16 0 -1
BITMAP
00
00
FF
FF
FF
E3
BD
BD
BD
BD
E3
FF
FF
FF
00
00
ENDCHAR

STARTCHAR CODE011
ENCODING 11
SWIDTH 401 0
DWIDTH 8 0
BBX 8 16 0 -1
BITMAP
00
0F
03
05
05
0C
0C
18
78
D8
D8
D8
D8
70
00
00
ENDCHAR

STARTCHAR CODE012
ENCODING 12
SWIDTH 401 0
DWIDTH 8 0
BBX 8 16 0 -1
BITMAP
00
1E
33
33
33
1E
0C
0C
7F
0C
0C
0C
0C
0C
0C
00
ENDCHAR

STARTCHAR CODE013
ENCODING 13
SWIDTH 401 0
DWIDTH 8 0
BBX 8 16 0 -1
BITMAP
00
18
1C
1E
1F
17
1B
19
19
1B
16
18
38
78
70
00
ENDCHAR

STARTCHAR CODE014
ENCODING 14
SWIDTH 401 0
DWIDTH 8 0
BBX 8 16 0 -1
BITMAP
00
07
3F
3D
37
3F
3D
31
31
31
33
37
77
F0
E0
00
ENDCHAR

STARTCHAR CODE015
ENCODING 15
SWIDTH 401 0
DWIDTH 8 0
BBX 8 16 0 -1
BITMAP
00
0C
6D
2B
16
33
33
73
33
33
16
2B
6D
0C
00
00
ENDCHAR

STARTCHAR CODE016
ENCODING 16
SWIDTH 401 0
DWIDTH 8 0
BBX 8 16 0 -1
BITMAP
00
C0
E0
F0
F8
FC
FE
FF
FE
FC
F8
F0
E0
C0
00
00
ENDCHAR

STARTCHAR CODE017
ENCODING 17
SWIDTH 401 0
DWIDTH 8 0
BBX 8 16 0 -1
BITMAP
00
01
03
07
0F
1F
3F
7F
3F
1F
0F
07
03
01
00
00
ENDCHAR

STARTCHAR CODE018
ENCODING 18
SWIDTH 401 0
DWIDTH 8 0
BBX 8 16 0 -1
BITMAP
00
0C
1E
3F
6D
0C
0C
0C
0C
0C
0C
6D
3F
1E
0C
00
ENDCHAR

STARTCHAR CODE019
ENCODING 19
SWIDTH 401 0
DWIDTH 8 0
BBX 8 16 0 -1
BITMAP
00
00
36
36
36
36
36
36
36
36
00
00
36
00
00
00
ENDCHAR

STARTCHAR CODE020
ENCODING 20
SWIDTH 401 0
DWIDTH 8 0
BBX 8 16 0 -1
BITMAP
00
3F
6D
CD
CD
CD
6D
3D
0D
0D
0D
0D
0D
0D
0D
00
ENDCHAR

STARTCHAR CODE021
ENCODING 21
SWIDTH 401 0
DWIDTH 8 0
BBX 8 16 0 -1
BITMAP
00
00
3E
63
61
7D
36
3E
2F
1F
63
61
31
1F
00
00
ENDCHAR

STARTCHAR CODE022
ENCODING 22
SWIDTH 401 0
DWIDTH 8 0
BBX 8 16 0 -1
BITMAP
00
00
00
00
00
FF
FF
FF
FF
FF
FF
00
00
00
00
00
ENDCHAR

STARTCHAR CODE023
ENCODING 23
SWIDTH 401 0
DWIDTH 8 0
BBX 8 16 0 -1
BITMAP
00
0C
1E
3F
6D
0C
0C
0C
0C
0C
6D
3F
1E
0C
7F
00
ENDCHAR

STARTCHAR CODE024
ENCODING 24
SWIDTH 401 0
DWIDTH 8 0
BBX 8 16 0 -1
BITMAP
00
0C
1E
3F
6D
0C
0C
0C
0C
0C
0C
0C
0C
0C
0C
00
ENDCHAR

STARTCHAR CODE025
ENCODING 25
SWIDTH 401 0
DWIDTH 8 0
BBX 8 16 0 -1
BITMAP
00
0C
0C
0C
0C
0C
0C
0C
0C
0C
0C
6D
3F
1E
0C
00
ENDCHAR

STARTCHAR CODE026
ENCODING 26
SWIDTH 401 0
DWIDTH 8 0
BBX 8 16 0 -1
BITMAP
00
00
00
00
00
0C
06
07
FF
07
06
0C
00
00
00
00
ENDCHAR

STARTCHAR CODE027
ENCODING 27
SWIDTH 401 0
DWIDTH 8 0
BBX 8 16 0 -1
BITMAP
00
00
00
00
00
18
30
70
FF
70
30
18
00
00
00
00
ENDCHAR

STARTCHAR CODE028
ENCODING 28
SWIDTH 401 0
DWIDTH 8 0
BBX 8 16 0 -1
BITMAP
00
00
00
00
60
60
60
60
60
60
60
7F
00
00
00
00
ENDCHAR

STARTCHAR CODE029
ENCODING 29
SWIDTH 401 0
DWIDTH 8 0
BBX 8 16 0 -1
BITMAP
00
00
00
00
00
00
36
63
FF
63
36
00
00
00
00
00
ENDCHAR

STARTCHAR CODE030
ENCODING 30
SWIDTH 401 0
DWIDTH 8 0
BBX 8 16 0 -1
BITMAP
00
00
00
0C
0C
1E
1E
1E
3F
3F
3F
7F
7F
00
00
00
ENDCHAR

STARTCHAR CODE031
ENCODING 31
SWIDTH 401 0
DWIDTH 8 0
BBX 8 16 0 -1
BITMAP
00
00
00
7F
7F
3F
3F
3F
1E
1E
1E
0C
0C
00
00
00
ENDCHAR

STARTCHAR CODE032
ENCODING 32
SWIDTH 401 0
DWIDTH 8 0
BBX 8 16 0 -1
BITMAP
00
00
00
00
00
00
00
00
00
00
00
00
00
00
00
00
ENDCHAR

STARTCHAR CODE033
ENCODING 33
SWIDTH 401 0
DWIDTH 8 0
BBX 8 16 0 -1
BITMAP
00
00
06
06
06
06
0C
0C
0C
0C
0C
00
00
18
00
00
ENDCHAR

STARTCHAR CODE034
ENCODING 34
SWIDTH 401 0
DWIDTH 8 0
BBX 8 16 0 -1
BITMAP
00
00
16
16
2C
00
00
00
00
00
00
00
00
00
00
00
ENDCHAR

STARTCHAR CODE035
ENCODING 35
SWIDTH 401 0
DWIDTH 8 0
BBX 8 16 0 -1
BITMAP
00
00
0B
0B
0B
0B
3F
16
16
7F
2C
2C
2C
2C
00
00
ENDCHAR

STARTCHAR CODE036
ENCODING 36
SWIDTH 401 0
DWIDTH 8 0
BBX 8 16 0 -1
BITMAP
00
03
1F
33
35
37
16
0C
0E
0B
3B
5B
5B
3E
30
00
ENDCHAR

STARTCHAR CODE037
ENCODING 37
SWIDTH 401 0
DWIDTH 8 0
BBX 8 16 0 -1
BITMAP
00
00
33
5B
56
56
2C
0C
1B
15
35
35
63
60
00
00
ENDCHAR

STARTCHAR CODE038
ENCODING 38
SWIDTH 401 0
DWIDTH 8 0
BBX 8 16 0 -1
BITMAP
00
00
38
6C
6C
6C
38
37
5B
CB
CE
C7
7B
00
00
00
ENDCHAR

STARTCHAR CODE039
ENCODING 39
SWIDTH 401 0
DWIDTH 8 0
BBX 8 16 0 -1
BITMAP
00
00
0C
0C
18
00
00
00
00
00
00
00
00
00
00
00
ENDCHAR

STARTCHAR CODE040
ENCODING 40
SWIDTH 401 0
DWIDTH 8 0
BBX 8 16 0 -1
BITMAP
00
03
06
06
0C
0C
0C
18
18
18
18
18
18
18
0C
00
ENDCHAR

STARTCHAR CODE041
ENCODING 41
SWIDTH 401 0
DWIDTH 8 0
BBX 8 16 0 -1
BITMAP
00
18
0C
0C
0C
0C
0C
0C
18
18
18
18
30
30
60
00
ENDCHAR

STARTCHAR CODE042
ENCODING 42
SWIDTH 401 0
DWIDTH 8 0
BBX 8 16 0 -1
BITMAP
00
00
00
00
0C
2B
1E
7F
1E
2B
0C
00
00
00
00
00
ENDCHAR

STARTCHAR CODE043
ENCODING 43
SWIDTH 401 0
DWIDTH 8 0
BBX 8 16 0 -1
BITMAP
00
00
00
00
00
0C
0C
0C
7F
0C
0C
0C
00
00
00
00
ENDCHAR

STARTCHAR CODE044
ENCODING 44
SWIDTH 401 0
DWIDTH 8 0
BBX 8 16 0 -1
BITMAP
00
00
00
00
00
00
00
00
00
00
00
00
30
30
60
00
ENDCHAR

STARTCHAR CODE045
ENCODING 45
SWIDTH 401 0
DWIDTH 8 0
BBX 8 16 0 -1
BITMAP
00
00
00
00
00
00
00
00
7F
00
00
00
00
00
00
00
ENDCHAR

STARTCHAR CODE046
ENCODING 46
SWIDTH 401 0
DWIDTH 8 0
BBX 8 16 0 -1
BITMAP
00
00
00
00
00
00
00
00
00
00
00
00
00
30
30
00
ENDCHAR

STARTCHAR CODE047
ENCODING 47
SWIDTH 401 0
DWIDTH 8 0
BBX 8 16 0 -1
BITMAP
00
00
03
03
06
06
0C
0C
18
18
30
30
60
60
00
00
ENDCHAR

STARTCHAR CODE048
ENCODING 48
SWIDTH 401 0
DWIDTH 8 0
BBX 8 16 0 -1
BITMAP
00
00
00
00
0E
1B
1B
1B
33
36
36
36
1C
00
00
00
ENDCHAR

STARTCHAR CODE049
ENCODING 49
SWIDTH 401 0
DWIDTH 8 0
BBX 8 16 0 -1
BITMAP
00
00
00
00
0C
1C
0C
0C
0C
0C
0C
0C
1E
00
00
00
ENDCHAR

STARTCHAR CODE050
ENCODING 50
SWIDTH 401 0
DWIDTH 8 0
BBX 8 16 0 -1
BITMAP
00
00
00
00
1E
33
33
06
0C
18
30
6E
78
00
00
00
ENDCHAR

STARTCHAR CODE051
ENCODING 51
SWIDTH 401 0
DWIDTH 8 0
BBX 8 16 0 -1
BITMAP
00
00
00
00
1E
33
03
0E
06
03
03
33
1E
00
00
00
ENDCHAR

STARTCHAR CODE052
ENCODING 52
SWIDTH 401 0
DWIDTH 8 0
BBX 8 16 0 -1
BITMAP
00
00
00
00
06
0E
16
36
6F
7C
0C
0C
0C
00
00
00
ENDCHAR

STARTCHAR CODE053
ENCODING 53
SWIDTH 401 0
DWIDTH 8 0
BBX 8 16 0 -1
BITMAP
00
00
00
00
1F
18
30
3E
03
03
03
36
1C
00
00
00
ENDCHAR

STARTCHAR CODE054
ENCODING 54
SWIDTH 401 0
DWIDTH 8 0
BBX 8 16 0 -1
BITMAP
00
00
00
00
0E
18
18
30
2E
3B
33
36
1C
00
00
00
ENDCHAR

STARTCHAR CODE055
ENCODING 55
SWIDTH 401 0
DWIDTH 8 0
BBX 8 16 0 -1
BITMAP
00
00
00
00
3F
03
06
06
0C
0C
18
18
18
00
00
00
ENDCHAR

STARTCHAR CODE056
ENCODING 56
SWIDTH 401 0
DWIDTH 8 0
BBX 8 16 0 -1
BITMAP
00
00
00
00
1E
33
33
16
1E
36
63
63
3E
00
00
00
ENDCHAR

STARTCHAR CODE057
ENCODING 57
SWIDTH 401 0
DWIDTH 8 0
BBX 8 16 0 -1
BITMAP
00
00
00
00
0E
1B
33
37
1B
03
06
06
1C
00
00
00
ENDCHAR

STARTCHAR CODE058
ENCODING 58
SWIDTH 401 0
DWIDTH 8 0
BBX 8 16 0 -1
BITMAP
00
00
00
00
00
0C
0C
00
00
00
0C
0C
00
00
00
00
ENDCHAR

STARTCHAR CODE059
ENCODING 59
SWIDTH 401 0
DWIDTH 8 0
BBX 8 16 0 -1
BITMAP
00
00
00
00
00
00
0C
0C
00
00
00
0C
0C
18
00
00
ENDCHAR

STARTCHAR CODE060
ENCODING 60
SWIDTH 401 0
DWIDTH 8 0
BBX 8 16 0 -1
BITMAP
00
00
00
03
06
0C
18
30
30
18
0C
06
03
00
00
00
ENDCHAR

STARTCHAR CODE061
ENCODING 61
SWIDTH 401 0
DWIDTH 8 0
BBX 8 16 0 -1
BITMAP
00
00
00
00
00
00
7F
00
7F
00
00
00
00
00
00
00
ENDCHAR

STARTCHAR CODE062
ENCODING 62
SWIDTH 401 0
DWIDTH 8 0
BBX 8 16 0 -1
BITMAP
00
00
00
60
30
18
0C
06
06
0C
18
30
60
00
00
00
ENDCHAR

STARTCHAR CODE063
ENCODING 63
SWIDTH 401 0
DWIDTH 8 0
BBX 8 16 0 -1
BITMAP
00
00
00
1E
33
33
03
06
0C
0C
18
18
00
18
00
00
ENDCHAR

STARTCHAR CODE064
ENCODING 64
SWIDTH 401 0
DWIDTH 8 0
BBX 8 16 0 -1
BITMAP
00
00
00
1E
33
6D
55
75
75
5B
60
33
1E
00
00
00
ENDCHAR

STARTCHAR CODE065
ENCODING 65
SWIDTH 401 0
DWIDTH 8 0
BBX 8 16 0 -1
BITMAP
00
00
03
07
0B
0B
1B
1B
3F
F3
33
63
63
63
00
00
ENDCHAR

STARTCHAR CODE066
ENCODING 66
SWIDTH 401 0
DWIDTH 8 0
BBX 8 16 0 -1
BITMAP
00
00
7E
1B
1B
33
36
3C
36
33
63
63
76
5C
00
00
ENDCHAR

STARTCHAR CODE067
ENCODING 67
SWIDTH 401 0
DWIDTH 8 0
BBX 8 16 0 -1
BITMAP
00
00
0E
1B
33
36
30
60
60
60
63
63
36
1C
00
00
ENDCHAR

STARTCHAR CODE068
ENCODING 68
SWIDTH 401 0
DWIDTH 8 0
BBX 8 16 0 -1
BITMAP
00
00
7E
33
31
31
31
31
61
63
63
66
5C
70
00
00
ENDCHAR

STARTCHAR CODE069
ENCODING 69
SWIDTH 401 0
DWIDTH 8 0
BBX 8 16 0 -1
BITMAP
00
00
0F
18
18
30
30
3E
60
60
60
60
6E
78
00
00
ENDCHAR

STARTCHAR CODE070
ENCODING 70
SWIDTH 401 0
DWIDTH 8 0
BBX 8 16 0 -1
BITMAP
00
00
3F
18
30
30
3E
30
60
60
60
60
60
60
00
00
ENDCHAR

STARTCHAR CODE071
ENCODING 71
SWIDTH 401 0
DWIDTH 8 0
BBX 8 16 0 -1
BITMAP
00
00
0E
1B
33
33
60
60
60
6E
63
63
37
1B
00
00
ENDCHAR

STARTCHAR CODE072
ENCODING 72
SWIDTH 401 0
DWIDTH 8 0
BBX 8 16 0 -1
BITMAP
00
00
19
19
19
33
33
2F
36
E6
66
66
66
66
00
00
ENDCHAR

STARTCHAR CODE073
ENCODING 73
SWIDTH 401 0
DWIDTH 8 0
BBX 8 16 0 -1
BITMAP
00
00
06
06
06
0C
0C
0C
0C
18
18
18
18
18
00
00
ENDCHAR

STARTCHAR CODE074
ENCODING 74
SWIDTH 401 0
DWIDTH 8 0
BBX 8 16 0 -1
BITMAP
00
00
07
0B
03
03
06
06
06
06
6C
6C
6C
38
00
00
ENDCHAR

STARTCHAR CODE075
ENCODING 75
SWIDTH 401 0
DWIDTH 8 0
BBX 8 16 0 -1
BITMAP
00
00
18
1B
16
36
3C
38
38
58
58
5B
5B
CE
00
00
ENDCHAR

STARTCHAR CODE076
ENCODING 76
SWIDTH 401 0
DWIDTH 8 0
BBX 8 16 0 -1
BITMAP
00
00
06
06
0C
0C
18
18
18
30
30
30
30
1E
00
00
ENDCHAR

STARTCHAR CODE077
ENCODING 77
SWIDTH 401 0
DWIDTH 8 0
BBX 8 16 0 -1
BITMAP
00
00
19
1B
3B
35
37
57
5F
5B
5B
C3
C1
C1
00
00
ENDCHAR

STARTCHAR CODE078
ENCODING 78
SWIDTH 401 0
DWIDTH 8 0
BBX 8 16 0 -1
BITMAP
00
00
01
31
31
33
3B
5B
56
5E
6E
CC
CC
C0
00
00
ENDCHAR

STARTCHAR CODE079
ENCODING 79
SWIDTH 401 0
DWIDTH 8 0
BBX 8 16 0 -1
BITMAP
00
00
1E
0B
19
19
31
33
33
63
66
66
6C
38
00
00
ENDCHAR

STARTCHAR CODE080
ENCODING 80
SWIDTH 401 0
DWIDTH 8 0
BBX 8 16 0 -1
BITMAP
00
00
7E
1B
19
19
31
33
3E
30
60
60
60
60
00
00
ENDCHAR

STARTCHAR CODE081
ENCODING 81
SWIDTH 401 0
DWIDTH 8 0
BBX 8 16 0 -1
BITMAP
00
00
3E
1B
19
31
31
31
63
63
7B
6E
6C
36
03
00
ENDCHAR

STARTCHAR CODE082
ENCODING 82
SWIDTH 401 0
DWIDTH 8 0
BBX 8 16 0 -1
BITMAP
00
00
3E
1B
31
31
31
67
7C
6C
6C
66
66
63
00
00
ENDCHAR

STARTCHAR CODE083
ENCODING 83
SWIDTH 401 0
DWIDTH 8 0
BBX 8 16 0 -1
BITMAP
00
00
0F
19
31
33
18
0E
03
03
63
63
36
1C
00
00
ENDCHAR

STARTCHAR CODE084
ENCODING 84
SWIDTH 401 0
DWIDTH 8 0
BBX 8 16 0 -1
BITMAP
00
00
0F
7C
0C
0C
18
18
18
30
30
30
60
60
00
00
ENDCHAR

STARTCHAR CODE085
ENCODING 85
SWIDTH 401 0
DWIDTH 8 0
BBX 8 16 0 -1
BITMAP
00
00
18
19
33
33
66
66
6E
CE
D6
D6
D6
73
00
00
ENDCHAR

STARTCHAR CODE086
ENCODING 86
SWIDTH 401 0
DWIDTH 8 0
BBX 8 16 0 -1
BITMAP
00
00
33
33
36
66
6C
6C
6C
58
58
58
30
30
00
00
ENDCHAR

STARTCHAR CODE087
ENCODING 87
SWIDTH 401 0
DWIDTH 8 0
BBX 8 16 0 -1
BITMAP
00
00
31
31
33
33
5B
5B
56
76
B6
B6
EC
CC
00
00
ENDCHAR

STARTCHAR CODE088
ENCODING 88
SWIDTH 401 0
DWIDTH 8 0
BBX 8 16 0 -1
BITMAP
00
00
31
33
16
16
1C
0C
1C
2C
36
66
63
C3
00
00
ENDCHAR

STARTCHAR CODE089
ENCODING 89
SWIDTH 401 0
DWIDTH 8 0
BBX 8 16 0 -1
BITMAP
00
00
01
1B
33
66
6E
6C
5C
2C
18
18
18
18
00
00
ENDCHAR

STARTCHAR CODE090
ENCODING 90
SWIDTH 401 0
DWIDTH 8 0
BBX 8 16 0 -1
BITMAP
00
00
7F
03
06
06
0C
18
18
30
30
60
60
3F
00
00
ENDCHAR

STARTCHAR CODE091
ENCODING 91
SWIDTH 401 0
DWIDTH 8 0
BBX 8 16 0 -1
BITMAP
00
00
0F
0C
0C
0C
0C
18
18
18
18
18
18
1E
00
00
ENDCHAR

STARTCHAR CODE092
ENCODING 92
SWIDTH 401 0
DWIDTH 8 0
BBX 8 16 0 -1
BITMAP
00
00
00
19
19
33
FF
33
56
FF
6E
6C
6C
00
00
00
ENDCHAR

STARTCHAR CODE093
ENCODING 93
SWIDTH 401 0
DWIDTH 8 0
BBX 8 16 0 -1
BITMAP
00
00
3C
0C
0C
0C
0C
0C
18
18
18
18
18
78
00
00
ENDCHAR

STARTCHAR CODE094
ENCODING 94
SWIDTH 401 0
DWIDTH 8 0
BBX 8 16 0 -1
BITMAP
00
00
0C
16
33
00
00
00
00
00
00
00
00
00
00
00
ENDCHAR

STARTCHAR CODE095
ENCODING 95
SWIDTH 401 0
DWIDTH 8 0
BBX 8 16 0 -1
BITMAP
00
00
00
00
00
00
00
00
00
00
00
00
00
00
7F
00
ENDCHAR

STARTCHAR CODE096
ENCODING 96
SWIDTH 401 0
DWIDTH 8 0
BBX 8 16 0 -1
BITMAP
00
00
18
18
0C
00
00
00
00
00
00
00
00
00
00
00
ENDCHAR

STARTCHAR CODE097
ENCODING 97
SWIDTH 401 0
DWIDTH 8 0
BBX 8 16 0 -1
BITMAP
00
00
00
00
00
00
00
00
0C
16
36
36
1B
00
00
00
ENDCHAR

STARTCHAR CODE098
ENCODING 98
SWIDTH 401 0
DWIDTH 8 0
BBX 8 16 0 -1
BITMAP
00
00
00
0C
0C
0C
18
18
1C
36
36
36
1C
00
00
00
ENDCHAR

STARTCHAR CODE099
ENCODING 99
SWIDTH 401 0
DWIDTH 8 0
BBX 8 16 0 -1
BITMAP
00
00
00
00
00
00
00
00
18
2C
30
36
1C
00
00
00
ENDCHAR

STARTCHAR CODE100
ENCODING 100
SWIDTH 401 0
DWIDTH 8 0
BBX 8 16 0 -1
BITMAP
00
00
00
03
03
06
06
06
1C
2C
6C
6C
36
00
00
00
ENDCHAR

STARTCHAR CODE101
ENCODING 101
SWIDTH 401 0
DWIDTH 8 0
BBX 8 16 0 -1
BITMAP
00
00
00
00
00
00
00
00
18
2C
38
36
1C
00
00
00
ENDCHAR

STARTCHAR CODE102
ENCODING 102
SWIDTH 401 0
DWIDTH 8 0
BBX 8 16 0 -1
BITMAP
00
00
00
07
0C
18
18
1E
70
30
38
6C
6C
6C
58
30
ENDCHAR

STARTCHAR CODE103
ENCODING 103
SWIDTH 401 0
DWIDTH 8 0
BBX 8 16 0 -1
BITMAP
00
00
00
00
00
00
00
00
18
2C
2C
18
38
6C
6C
38
ENDCHAR

STARTCHAR CODE104
ENCODING 104
SWIDTH 401 0
DWIDTH 8 0
BBX 8 16 0 -1
BITMAP
00
00
00
0C
0C
18
18
18
1C
36
2C
2B
36
00
00
00
ENDCHAR

STARTCHAR CODE105
ENCODING 105
SWIDTH 401 0
DWIDTH 8 0
BBX 8 16 0 -1
BITMAP
00
00
00
00
00
06
00
00
0C
0C
18
18
18
00
00
00
ENDCHAR

STARTCHAR CODE106
ENCODING 106
SWIDTH 401 0
DWIDTH 8 0
BBX 8 16 0 -1
BITMAP
00
00
00
00
00
06
00
00
0C
0B
0E
1C
2C
58
58
30
ENDCHAR

STARTCHAR CODE107
ENCODING 107
SWIDTH 401 0
DWIDTH 8 0
BBX 8 16 0 -1
BITMAP
00
00
00
18
2C
2C
2C
37
2C
38
5B
5B
6E
00
00
00
ENDCHAR

STARTCHAR CODE108
ENCODING 108
SWIDTH 401 0
DWIDTH 8 0
BBX 8 16 0 -1
BITMAP
00
00
00
06
0B
0B
16
16
2C
38
30
36
1C
00
00
00
ENDCHAR

STARTCHAR CODE109
ENCODING 109
SWIDTH 401 0
DWIDTH 8 0
BBX 8 16 0 -1
BITMAP
00
00
00
00
00
00
00
00
56
6B
5B
56
56
00
00
00
ENDCHAR

STARTCHAR CODE110
ENCODING 110
SWIDTH 401 0
DWIDTH 8 0
BBX 8 16 0 -1
BITMAP
00
00
00
00
00
00
00
00
16
1B
1B
36
36
00
00
00
ENDCHAR

STARTCHAR CODE111
ENCODING 111
SWIDTH 401 0
DWIDTH 8 0
BBX 8 16 0 -1
BITMAP
00
00
00
00
00
00
00
00
0E
1B
1B
36
1C
00
00
00
ENDCHAR

STARTCHAR CODE112
ENCODING 112
SWIDTH 401 0
DWIDTH 8 0
BBX 8 16 0 -1
BITMAP
00
00
00
00
00
00
00
00
1C
36
36
2C
38
60
60
60
ENDCHAR

STARTCHAR CODE113
ENCODING 113
SWIDTH 401 0
DWIDTH 8 0
BBX 8 16 0 -1
BITMAP
00
00
00
00
00
00
00
00
1C
36
36
2C
1C
0C
18
18
ENDCHAR

STARTCHAR CODE114
ENCODING 114
SWIDTH 401 0
DWIDTH 8 0
BBX 8 16 0 -1
BITMAP
00
00
00
00
00
00
00
00
1B
16
1B
30
30
00
00
00
ENDCHAR

STARTCHAR CODE115
ENCODING 115
SWIDTH 401 0
DWIDTH 8 0
BBX 8 16 0 -1
BITMAP
00
00
00
00
00
00
00
00
0C
16
0C
2C
18
00
00
00
ENDCHAR

STARTCHAR CODE116
ENCODING 116
SWIDTH 401 0
DWIDTH 8 0
BBX 8 16 0 -1
BITMAP
00
00
00
00
00
0C
0E
3C
0C
18
18
16
0C
00
00
00
ENDCHAR

STARTCHAR CODE117
ENCODING 117
SWIDTH 401 0
DWIDTH 8 0
BBX 8 16 0 -1
BITMAP
00
00
00
00
00
00
00
00
16
16
2C
2C
16
00
00
00
ENDCHAR

STARTCHAR CODE118
ENCODING 118
SWIDTH 401 0
DWIDTH 8 0
BBX 8 16 0 -1
BITMAP
00
00
00
00
00
00
00
00
16
17
2C
2C
18
00
00
00
ENDCHAR

STARTCHAR CODE119
ENCODING 119
SWIDTH 401 0
DWIDTH 8 0
BBX 8 16 0 -1
BITMAP
00
00
00
00
00
00
00
00
33
2B
5B
6E
6C
00
00
00
ENDCHAR

STARTCHAR CODE120
ENCODING 120
SWIDTH 401 0
DWIDTH 8 0
BBX 8 16 0 -1
BITMAP
00
00
00
00
00
00
00
00
2C
1C
18
1B
36
00
00
00
ENDCHAR

STARTCHAR CODE121
ENCODING 121
SWIDTH 401 0
DWIDTH 8 0
BBX 8 16 0 -1
BITMAP
00
00
00
00
00
00
00
00
1B
1B
16
37
1C
2C
6C
38
ENDCHAR

STARTCHAR CODE122
ENCODING 122
SWIDTH 401 0
DWIDTH 8 0
BBX 8 16 0 -1
BITMAP
00
00
00
00
00
00
00
00
3E
0C
18
30
3E
00
00
00
ENDCHAR

STARTCHAR CODE123
ENCODING 123
SWIDTH 401 0
DWIDTH 8 0
BBX 8 16 0 -1
BITMAP
00
07
0C
0C
0C
18
18
70
18
18
18
30
30
18
0E
00
ENDCHAR

STARTCHAR CODE124
ENCODING 124
SWIDTH 401 0
DWIDTH 8 0
BBX 8 16 0 -1
BITMAP
00
00
06
06
06
06
0C
0C
0C
0C
18
18
18
18
00
00
ENDCHAR

STARTCHAR CODE125
ENCODING 125
SWIDTH 401 0
DWIDTH 8 0
BBX 8 16 0 -1
BITMAP
00
1C
06
06
06
0C
0C
0C
07
0C
0C
18
18
18
70
00
ENDCHAR

STARTCHAR CODE126
ENCODING 126
SWIDTH 401 0
DWIDTH 8 0
BBX 8 16 0 -1
BITMAP
00
00
00
00
00
00
00
1D
37
00
00
00
00
00
00
00
ENDCHAR

STARTCHAR CODE127
ENCODING 127
SWIDTH 401 0
DWIDTH 8 0
BBX 8 16 0 -1
BITMAP
00
00
00
00
00
00
00
00
00
00
00
00
00
00
00
00
ENDCHAR

STARTCHAR CODE128
ENCODING 128
SWIDTH 401 0
DWIDTH 8 0
BBX 8 16 0 -1
BITMAP
00
00
07
0D
19
33
36
60
60
60
66
3C
18
2C
0C
18
ENDCHAR

STARTCHAR CODE129
ENCODING 129
SWIDTH 401 0
DWIDTH 8 0
BBX 8 16 0 -1
BITMAP
00
00
00
00
00
16
00
00
16
16
2C
2C
16
00
00
00
ENDCHAR

STARTCHAR CODE130
ENCODING 130
SWIDTH 401 0
DWIDTH 8 0
BBX 8 16 0 -1
BITMAP
00
00
00
00
00
0C
18
00
18
2C
38
36
1C
00
00
00
ENDCHAR

STARTCHAR CODE131
ENCODING 131
SWIDTH 401 0
DWIDTH 8 0
BBX 8 16 0 -1
BITMAP
00
00
00
00
00
0C
16
00
0C
16
36
2C
16
00
00
00
ENDCHAR

STARTCHAR CODE132
ENCODING 132
SWIDTH 401 0
DWIDTH 8 0
BBX 8 16 0 -1
BITMAP
00
00
00
00
00
16
00
00
0C
16
36
2C
16
00
00
00
ENDCHAR

STARTCHAR CODE133
ENCODING 133
SWIDTH 401 0
DWIDTH 8 0
BBX 8 16 0 -1
BITMAP
00
00
00
00
00
0C
06
00
0C
16
36
2C
16
00
00
00
ENDCHAR

STARTCHAR CODE134
ENCODING 134
SWIDTH 401 0
DWIDTH 8 0
BBX 8 16 0 -1
BITMAP
00
00
00
00
06
0B
06
00
0C
16
36
2C
16
00
00
00
ENDCHAR

STARTCHAR CODE135
ENCODING 135
SWIDTH 401 0
DWIDTH 8 0
BBX 8 16 0 -1
BITMAP
00
00
00
00
00
00
00
00
0C
16
30
36
1C
18
0C
18
ENDCHAR

STARTCHAR CODE136
ENCODING 136
SWIDTH 401 0
DWIDTH 8 0
BBX 8 16 0 -1
BITMAP
00
00
00
00
00
0C
16
00
18
2C
38
36
1C
00
00
00
ENDCHAR

STARTCHAR CODE137
ENCODING 137
SWIDTH 401 0
DWIDTH 8 0
BBX 8 16 0 -1
BITMAP
00
00
00
00
00
16
00
00
18
2C
38
36
1C
00
00
00
ENDCHAR

STARTCHAR CODE138
ENCODING 138
SWIDTH 401 0
DWIDTH 8 0
BBX 8 16 0 -1
BITMAP
00
00
00
00
00
0C
06
00
18
2C
38
36
1C
00
00
00
ENDCHAR

STARTCHAR CODE139
ENCODING 139
SWIDTH 401 0
DWIDTH 8 0
BBX 8 16 0 -1
BITMAP
00
00
00
00
0C
16
00
00
18
18
30
30
30
00
00
00
ENDCHAR

STARTCHAR CODE140
ENCODING 140
SWIDTH 401 0
DWIDTH 8 0
BBX 8 16 0 -1
BITMAP
00
00
00
00
00
00
16
00
18
18
18
30
30
00
00
00
ENDCHAR

STARTCHAR CODE141
ENCODING 141
SWIDTH 401 0
DWIDTH 8 0
BBX 8 16 0 -1
BITMAP
00
00
00
00
00
0C
06
00
18
18
18
30
30
00
00
00
ENDCHAR

STARTCHAR CODE142
ENCODING 142
SWIDTH 401 0
DWIDTH 8 0
BBX 8 16 0 -1
BITMAP
00
0B
00
00
03
07
0B
0B
1F
7B
33
33
63
63
00
00
ENDCHAR

STARTCHAR CODE143
ENCODING 143
SWIDTH 401 0
DWIDTH 8 0
BBX 8 16 0 -1
BITMAP
00
06
0B
06
03
07
0B
0B
1F
7B
33
33
63
63
00
00
ENDCHAR

STARTCHAR CODE144
ENCODING 144
SWIDTH 401 0
DWIDTH 8 0
BBX 8 16 0 -1
BITMAP
00
06
0C
00
00
3F
18
30
30
3E
60
60
6E
78
00
00
ENDCHAR

STARTCHAR CODE145
ENCODING 145
SWIDTH 401 0
DWIDTH 8 0
BBX 8 16 0 -1
BITMAP
00
00
00
00
00
00
00
00
6C
16
3C
5B
2E
00
00
00
ENDCHAR

STARTCHAR CODE146
ENCODING 146
SWIDTH 401 0
DWIDTH 8 0
BBX 8 16 0 -1
BITMAP
00
00
1F
0E
16
16
37
7C
2C
2C
6C
6B
6E
00
00
00
ENDCHAR

STARTCHAR CODE147
ENCODING 147
SWIDTH 401 0
DWIDTH 8 0
BBX 8 16 0 -1
BITMAP
00
00
00
00
00
0C
16
00
0C
16
36
2C
18
00
00
00
ENDCHAR

STARTCHAR CODE148
ENCODING 148
SWIDTH 401 0
DWIDTH 8 0
BBX 8 16 0 -1
BITMAP
00
00
00
00
00
0B
00
00
0E
1B
1B
36
1C
00
00
00
ENDCHAR

STARTCHAR CODE149
ENCODING 149
SWIDTH 401 0
DWIDTH 8 0
BBX 8 16 0 -1
BITMAP
00
00
00
00
00
0C
06
00
0C
16
36
2C
18
00
00
00
ENDCHAR

STARTCHAR CODE150
ENCODING 150
SWIDTH 401 0
DWIDTH 8 0
BBX 8 16 0 -1
BITMAP
00
00
00
00
00
0C
16
00
16
16
2C
2C
16
00
00
00
ENDCHAR

STARTCHAR CODE151
ENCODING 151
SWIDTH 401 0
DWIDTH 8 0
BBX 8 16 0 -1
BITMAP
00
00
00
00
00
0C
06
00
16
16
2C
2C
16
00
00
00
ENDCHAR

STARTCHAR CODE152
ENCODING 152
SWIDTH 401 0
DWIDTH 8 0
BBX 8 16 0 -1
BITMAP
00
00
00
00
00
16
00
00
16
36
2B
1E
1C
2C
6C
38
ENDCHAR

STARTCHAR CODE153
ENCODING 153
SWIDTH 401 0
DWIDTH 8 0
BBX 8 16 0 -1
BITMAP
00
0B
00
00
3E
1B
33
33
63
63
66
66
6C
38
00
00
ENDCHAR

STARTCHAR CODE154
ENCODING 154
SWIDTH 401 0
DWIDTH 8 0
BBX 8 16 0 -1
BITMAP
00
0B
00
00
19
1B
33
37
37
6B
6E
56
56
36
00
00
ENDCHAR

STARTCHAR CODE155
ENCODING 155
SWIDTH 401 0
DWIDTH 8 0
BBX 8 16 0 -1
BITMAP
00
00
00
00
00
00
06
1E
2E
2C
3B
1E
30
30
00
00
ENDCHAR

STARTCHAR CODE156
ENCODING 156
SWIDTH 401 0
DWIDTH 8 0
BBX 8 16 0 -1
BITMAP
00
00
00
07
0C
0C
18
7E
18
18
30
3E
60
00
00
00
ENDCHAR

STARTCHAR CODE157
ENCODING 157
SWIDTH 401 0
DWIDTH 8 0
BBX 8 16 0 -1
BITMAP
00
00
00
19
19
0B
0E
07
3C
0F
78
18
18
00
00
00
ENDCHAR

STARTCHAR CODE158
ENCODING 158
SWIDTH 401 0
DWIDTH 8 0
BBX 8 16 0 -1
BITMAP
00
00
30
78
2C
6B
6B
5F
73
66
C6
C6
C5
C3
00
00
ENDCHAR

STARTCHAR CODE159
ENCODING 159
SWIDTH 401 0
DWIDTH 8 0
BBX 8 16 0 -1
BITMAP
00
00
03
06
06
0C
0F
3C
0C
0C
18
18
18
00
00
00
ENDCHAR

STARTCHAR CODE160
ENCODING 160
SWIDTH 401 0
DWIDTH 8 0
BBX 8 16 0 -1
BITMAP
00
00
00
00
00
06
0C
00
0C
16
36
2C
16
00
00
00
ENDCHAR

STARTCHAR CODE161
ENCODING 161
SWIDTH 401 0
DWIDTH 8 0
BBX 8 16 0 -1
BITMAP
00
00
00
00
00
06
0C
00
18
18
18
30
30
00
00
00
ENDCHAR

STARTCHAR CODE162
ENCODING 162
SWIDTH 401 0
DWIDTH 8 0
BBX 8 16 0 -1
BITMAP
00
00
00
00
00
06
0C
00
1C
36
36
6C
38
00
00
00
ENDCHAR

STARTCHAR CODE163
ENCODING 163
SWIDTH 401 0
DWIDTH 8 0
BBX 8 16 0 -1
BITMAP
00
00
00
00
00
06
0C
00
16
36
2C
2C
16
00
00
00
ENDCHAR

STARTCHAR CODE164
ENCODING 164
SWIDTH 401 0
DWIDTH 8 0
BBX 8 16 0 -1
BITMAP
00
00
00
00
00
1B
2E
00
2C
36
36
36
33
00
00
00
ENDCHAR

STARTCHAR CODE165
ENCODING 165
SWIDTH 401 0
DWIDTH 8 0
BBX 8 16 0 -1
BITMAP
00
3B
6E
00
19
19
3B
3B
2B
6B
6B
66
66
66
00
00
ENDCHAR

STARTCHAR CODE166
ENCODING 166
SWIDTH 401 0
DWIDTH 8 0
BBX 8 16 0 -1
BITMAP
00
00
0C
16
36
1B
00
3F
00
00
00
00
00
00
00
00
ENDCHAR

STARTCHAR CODE167
ENCODING 167
SWIDTH 401 0
DWIDTH 8 0
BBX 8 16 0 -1
BITMAP
00
00
1C
36
36
1C
00
3E
00
00
00
00
00
00
00
00
ENDCHAR

STARTCHAR CODE168
ENCODING 168
SWIDTH 401 0
DWIDTH 8 0
BBX 8 16 0 -1
BITMAP
00
00
00
00
00
06
00
00
06
06
0C
18
30
33
36
1C
ENDCHAR

STARTCHAR CODE169
ENCODING 169
SWIDTH 401 0
DWIDTH 8 0
BBX 8 16 0 -1
BITMAP
00
00
00
00
00
00
00
7F
60
60
00
00
00
00
00
00
ENDCHAR

STARTCHAR CODE170
ENCODING 170
SWIDTH 401 0
DWIDTH 8 0
BBX 8 16 0 -1
BITMAP
00
00
00
00
00
00
00
7F
03
03
00
00
00
00
00
00
ENDCHAR

STARTCHAR CODE171
ENCODING 171
SWIDTH 401 0
DWIDTH 8 0
BBX 8 16 0 -1
BITMAP
00
03
0E
06
06
0C
0C
0F
78
0C
16
06
0C
18
3E
00
ENDCHAR

STARTCHAR CODE172
ENCODING 172
SWIDTH 401 0
DWIDTH 8 0
BBX 8 16 0 -1
BITMAP
00
03
0E
06
06
0C
0C
0F
78
06
0E
16
2C
3E
0C
00
ENDCHAR

STARTCHAR CODE173
ENCODING 173
SWIDTH 401 0
DWIDTH 8 0
BBX 8 16 0 -1
BITMAP
00
00
00
06
00
00
0C
0C
18
18
18
30
30
30
00
00
ENDCHAR

STARTCHAR CODE174
ENCODING 174
SWIDTH 401 0
DWIDTH 8 0
BBX 8 16 0 -1
BITMAP
00
00
00
00
00
00
16
2C
3E
00
00
00
00
00
00
00
ENDCHAR

STARTCHAR CODE175
ENCODING 175
SWIDTH 401 0
DWIDTH 8 0
BBX 8 16 0 -1
BITMAP
00
00
00
00
00
00
00
3E
16
2C
00
00
00
00
00
00
ENDCHAR

STARTCHAR CODE176
ENCODING 176
SWIDTH 401 0
DWIDTH 8 0
BBX 8 16 0 -1
BITMAP
00
AB
00
AB
00
AB
00
AB
00
AB
00
AB
00
AB
00
AB
ENDCHAR

STARTCHAR CODE177
ENCODING 177
SWIDTH 401 0
DWIDTH 8 0
BBX 8 16 0 -1
BITMAP
00
DB
DB
00
DB
DB
00
DB
DB
00
DB
DB
00
DB
DB
00
ENDCHAR

STARTCHAR CODE178
ENCODING 178
SWIDTH 401 0
DWIDTH 8 0
BBX 8 16 0 -1
BITMAP
00
77
77
77
00
77
77
77
00
77
77
77
00
77
77
77
ENDCHAR

STARTCHAR CODE179
ENCODING 179
SWIDTH 401 0
DWIDTH 8 0
BBX 8 16 0 -1
BITMAP
00
0C
0C
0C
0C
0C
0C
0C
0C
0C
0C
0C
0C
0C
0C
0C
ENDCHAR

STARTCHAR CODE180
ENCODING 180
SWIDTH 401 0
DWIDTH 8 0
BBX 8 16 0 -1
BITMAP
00
0C
0C
0C
0C
0C
0C
0C
7C
0C
0C
0C
0C
0C
0C
0C
ENDCHAR

STARTCHAR CODE181
ENCODING 181
SWIDTH 401 0
DWIDTH 8 0
BBX 8 16 0 -1
BITMAP
00
0C
0C
0C
0C
0C
0C
7C
0C
7C
0C
0C
0C
0C
0C
0C
ENDCHAR

STARTCHAR CODE182
ENCODING 182
SWIDTH 401 0
DWIDTH 8 0
BBX 8 16 0 -1
BITMAP
00
16
16
16
16
16
16
16
76
16
16
16
16
16
16
16
ENDCHAR

STARTCHAR CODE183
ENCODING 183
SWIDTH 401 0
DWIDTH 8 0
BBX 8 16 0 -1
BITMAP
00
00
00
00
00
00
00
00
7E
16
16
16
16
16
16
16
ENDCHAR

STARTCHAR CODE184
ENCODING 184
SWIDTH 401 0
DWIDTH 8 0
BBX 8 16 0 -1
BITMAP
00
00
00
00
00
00
00
7C
0C
7C
0C
0C
0C
0C
0C
0C
ENDCHAR

STARTCHAR CODE185
ENCODING 185
SWIDTH 401 0
DWIDTH 8 0
BBX 8 16 0 -1
BITMAP
00
16
16
16
16
16
16
76
06
76
16
16
16
16
16
16
ENDCHAR

STARTCHAR CODE186
ENCODING 186
SWIDTH 401 0
DWIDTH 8 0
BBX 8 16 0 -1
BITMAP
00
16
16
16
16
16
16
16
16
16
16
16
16
16
16
16
ENDCHAR

STARTCHAR CODE187
ENCODING 187
SWIDTH 401 0
DWIDTH 8 0
BBX 8 16 0 -1
BITMAP
00
00
00
00
00
00
00
7E
06
76
16
16
16
16
16
16
ENDCHAR

STARTCHAR CODE188
ENCODING 188
SWIDTH 401 0
DWIDTH 8 0
BBX 8 16 0 -1
BITMAP
00
16
16
16
16
16
16
76
06
7E
00
00
00
00
00
00
ENDCHAR

STARTCHAR CODE189
ENCODING 189
SWIDTH 401 0
DWIDTH 8 0
BBX 8 16 0 -1
BITMAP
00
16
16
16
16
16
16
16
7E
00
00
00
00
00
00
00
ENDCHAR

STARTCHAR CODE190
ENCODING 190
SWIDTH 401 0
DWIDTH 8 0
BBX 8 16 0 -1
BITMAP
00
0C
0C
0C
0C
0C
0C
7C
0C
7C
00
00
00
00
00
00
ENDCHAR

STARTCHAR CODE191
ENCODING 191
SWIDTH 401 0
DWIDTH 8 0
BBX 8 16 0 -1
BITMAP
00
00
00
00
00
00
00
00
7C
0C
0C
0C
0C
0C
0C
0C
ENDCHAR

STARTCHAR CODE192
ENCODING 192
SWIDTH 401 0
DWIDTH 8 0
BBX 8 16 0 -1
BITMAP
00
0C
0C
0C
0C
0C
0C
0C
0F
00
00
00
00
00
00
00
ENDCHAR

STARTCHAR CODE193
ENCODING 193
SWIDTH 401 0
DWIDTH 8 0
BBX 8 16 0 -1
BITMAP
00
0C
0C
0C
0C
0C
0C
0C
7F
00
00
00
00
00
00
00
ENDCHAR

STARTCHAR CODE194
ENCODING 194
SWIDTH 401 0
DWIDTH 8 0
BBX 8 16 0 -1
BITMAP
00
00
00
00
00
00
00
00
7F
0C
0C
0C
0C
0C
0C
0C
ENDCHAR

STARTCHAR CODE195
ENCODING 195
SWIDTH 401 0
DWIDTH 8 0
BBX 8 16 0 -1
BITMAP
00
0C
0C
0C
0C
0C
0C
0C
0F
0C
0C
0C
0C
0C
0C
0C
ENDCHAR

STARTCHAR CODE196
ENCODING 196
SWIDTH 401 0
DWIDTH 8 0
BBX 8 16 0 -1
BITMAP
00
00
00
00
00
00
00
00
7F
00
00
00
00
00
00
00
ENDCHAR

STARTCHAR CODE197
ENCODING 197
SWIDTH 401 0
DWIDTH 8 0
BBX 8 16 0 -1
BITMAP
00
0C
0C
0C
0C
0C
0C
0C
7F
0C
0C
0C
0C
0C
0C
0C
ENDCHAR

STARTCHAR CODE198
ENCODING 198
SWIDTH 401 0
DWIDTH 8 0
BBX 8 16 0 -1
BITMAP
00
0C
0C
0C
0C
0C
0C
0F
0C
0F
0C
0C
0C
0C
0C
0C
ENDCHAR

STARTCHAR CODE199
ENCODING 199
SWIDTH 401 0
DWIDTH 8 0
BBX 8 16 0 -1
BITMAP
00
16
16
16
16
16
16
16
17
16
16
16
16
16
16
16
ENDCHAR

STARTCHAR CODE200
ENCODING 200
SWIDTH 401 0
DWIDTH 8 0
BBX 8 16 0 -1
BITMAP
00
16
16
16
16
16
16
17
18
1F
00
00
00
00
00
00
ENDCHAR

STARTCHAR CODE201
ENCODING 201
SWIDTH 401 0
DWIDTH 8 0
BBX 8 16 0 -1
BITMAP
00
00
00
00
00
00
00
1F
18
17
16
16
16
16
16
16
ENDCHAR

STARTCHAR CODE202
ENCODING 202
SWIDTH 401 0
DWIDTH 8 0
BBX 8 16 0 -1
BITMAP
00
16
16
16
16
16
16
77
00
7F
00
00
00
00
00
00
ENDCHAR

STARTCHAR CODE203
ENCODING 203
SWIDTH 401 0
DWIDTH 8 0
BBX 8 16 0 -1
BITMAP
00
00
00
00
00
00
00
7F
00
77
16
16
16
16
16
16
ENDCHAR

STARTCHAR CODE204
ENCODING 204
SWIDTH 401 0
DWIDTH 8 0
BBX 8 16 0 -1
BITMAP
00
16
16
16
16
16
16
17
18
17
16
16
16
16
16
16
ENDCHAR

STARTCHAR CODE205
ENCODING 205
SWIDTH 401 0
DWIDTH 8 0
BBX 8 16 0 -1
BITMAP
00
00
00
00
00
00
00
7F
00
7F
00
00
00
00
00
00
ENDCHAR

STARTCHAR CODE206
ENCODING 206
SWIDTH 401 0
DWIDTH 8 0
BBX 8 16 0 -1
BITMAP
00
16
16
16
16
16
16
77
00
77
16
16
16
16
16
16
ENDCHAR

STARTCHAR CODE207
ENCODING 207
SWIDTH 401 0
DWIDTH 8 0
BBX 8 16 0 -1
BITMAP
00
0C
0C
0C
0C
0C
0C
7F
00
7F
00
00
00
00
00
00
ENDCHAR

STARTCHAR CODE208
ENCODING 208
SWIDTH 401 0
DWIDTH 8 0
BBX 8 16 0 -1
BITMAP
00
16
16
16
16
16
16
16
7F
00
00
00
00
00
00
00
ENDCHAR

STARTCHAR CODE209
ENCODING 209
SWIDTH 401 0
DWIDTH 8 0
BBX 8 16 0 -1
BITMAP
00
00
00
00
00
00
00
7F
00
7F
0C
0C
0C
0C
0C
0C
ENDCHAR

STARTCHAR CODE210
ENCODING 210
SWIDTH 401 0
DWIDTH 8 0
BBX 8 16 0 -1
BITMAP
00
00
00
00
00
00
00
00
7F
16
16
16
16
16
16
16
ENDCHAR

STARTCHAR CODE211
ENCODING 211
SWIDTH 401 0
DWIDTH 8 0
BBX 8 16 0 -1
BITMAP
00
16
16
16
16
16
16
16
1F
00
00
00
00
00
00
00
ENDCHAR

STARTCHAR CODE212
ENCODING 212
SWIDTH 401 0
DWIDTH 8 0
BBX 8 16 0 -1
BITMAP
00
0C
0C
0C
0C
0C
0C
0F
0C
0F
00
00
00
00
00
00
ENDCHAR

STARTCHAR CODE213
ENCODING 213
SWIDTH 401 0
DWIDTH 8 0
BBX 8 16 0 -1
BITMAP
00
00
00
00
00
00
00
0F
0C
0F
0C
0C
0C
0C
0C
0C
ENDCHAR

STARTCHAR CODE214
ENCODING 214
SWIDTH 401 0
DWIDTH 8 0
BBX 8 16 0 -1
BITMAP
00
00
00
00
00
00
00
00
1F
16
16
16
16
16
16
16
ENDCHAR

STARTCHAR CODE215
ENCODING 215
SWIDTH 401 0
DWIDTH 8 0
BBX 8 16 0 -1
BITMAP
00
16
16
16
16
16
16
16
7F
16
16
16
16
16
16
16
ENDCHAR

STARTCHAR CODE216
ENCODING 216
SWIDTH 401 0
DWIDTH 8 0
BBX 8 16 0 -1
BITMAP
00
0C
0C
0C
0C
0C
0C
7F
0C
7F
0C
0C
0C
0C
0C
0C
ENDCHAR

STARTCHAR CODE217
ENCODING 217
SWIDTH 401 0
DWIDTH 8 0
BBX 8 16 0 -1
BITMAP
00
0C
0C
0C
0C
0C
0C
0C
7C
00
00
00
00
00
00
00
ENDCHAR

STARTCHAR CODE218
ENCODING 218
SWIDTH 401 0
DWIDTH 8 0
BBX 8 16 0 -1
BITMAP
00
00
00
00
00
00
00
00
0F
0C
0C
0C
0C
0C
0C
0C
ENDCHAR

STARTCHAR CODE219
ENCODING 219
SWIDTH 401 0
DWIDTH 8 0
BBX 8 16 0 -1
BITMAP
FF
FF
FF
FF
FF
FF
FF
FF
FF
FF
FF
FF
FF
FF
FF
FF
ENDCHAR

STARTCHAR CODE220
ENCODING 220
SWIDTH 401 0
DWIDTH 8 0
BBX 8 16 0 -1
BITMAP
00
00
00
00
00
00
00
00
FF
FF
FF
FF
FF
FF
FF
FF
ENDCHAR

STARTCHAR CODE221
ENCODING 221
SWIDTH 401 0
DWIDTH 8 0
BBX 8 16 0 -1
BITMAP
F8
F8
F8
F8
F8
F8
F8
F8
F8
F8
F8
F8
F8
F8
F8
F8
ENDCHAR

STARTCHAR CODE222
ENCODING 222
SWIDTH 401 0
DWIDTH 8 0
BBX 8 16 0 -1
BITMAP
0F
0F
0F
0F
0F
0F
0F
0F
0F
0F
0F
0F
0F
0F
0F
0F
ENDCHAR

STARTCHAR CODE223
ENCODING 223
SWIDTH 401 0
DWIDTH 8 0
BBX 8 16 0 -1
BITMAP
FF
FF
FF
FF
FF
FF
FF
FF
00
00
00
00
00
00
00
00
ENDCHAR

STARTCHAR CODE224
ENCODING 224
SWIDTH 401 0
DWIDTH 8 0
BBX 8 16 0 -1
BITMAP
00
00
00
00
00
00
00
00
1B
36
36
2E
17
00
00
00
ENDCHAR

STARTCHAR CODE225
ENCODING 225
SWIDTH 401 0
DWIDTH 8 0
BBX 8 16 0 -1
BITMAP
00
0E
1B
1B
36
3C
36
33
33
63
66
7C
60
60
00
00
ENDCHAR

STARTCHAR CODE226
ENCODING 226
SWIDTH 401 0
DWIDTH 8 0
BBX 8 16 0 -1
BITMAP
00
00
0F
38
18
30
30
30
60
60
60
60
60
00
00
00
ENDCHAR

STARTCHAR CODE227
ENCODING 227
SWIDTH 401 0
DWIDTH 8 0
BBX 8 16 0 -1
BITMAP
00
00
00
00
00
00
00
00
3F
16
16
2C
37
00
00
00
ENDCHAR

STARTCHAR CODE228
ENCODING 228
SWIDTH 401 0
DWIDTH 8 0
BBX 8 16 0 -1
BITMAP
00
00
0F
38
0C
06
03
06
0C
18
30
6F
78
00
00
00
ENDCHAR

STARTCHAR CODE229
ENCODING 229
SWIDTH 401 0
DWIDTH 8 0
BBX 8 16 0 -1
BITMAP
00
00
00
00
00
06
0C
18
2C
66
66
66
3C
00
00
00
ENDCHAR

STARTCHAR CODE230
ENCODING 230
SWIDTH 401 0
DWIDTH 8 0
BBX 8 16 0 -1
BITMAP
00
00
00
00
00
00
00
00
36
36
2C
2B
56
60
60
00
ENDCHAR

STARTCHAR CODE231
ENCODING 231
SWIDTH 401 0
DWIDTH 8 0
BBX 8 16 0 -1
BITMAP
00
00
00
00
00
00
00
00
1F
2C
0C
18
0E
00
00
00
ENDCHAR

STARTCHAR CODE232
ENCODING 232
SWIDTH 401 0
DWIDTH 8 0
BBX 8 16 0 -1
BITMAP
00
03
1F
0B
15
15
2D
2B
3B
5B
56
76
6C
78
60
00
ENDCHAR

STARTCHAR CODE233
ENCODING 233
SWIDTH 401 0
DWIDTH 8 0
BBX 8 16 0 -1
BITMAP
00
00
1E
2B
19
19
31
2F
3B
63
66
66
6C
38
00
00
ENDCHAR

STARTCHAR CODE234
ENCODING 234
SWIDTH 401 0
DWIDTH 8 0
BBX 8 16 0 -1
BITMAP
00
00
0E
1B
31
31
61
61
61
63
36
2C
2C
EF
00
00
ENDCHAR

STARTCHAR CODE235
ENCODING 235
SWIDTH 401 0
DWIDTH 8 0
BBX 8 16 0 -1
BITMAP
00
00
0F
19
18
0C
0C
16
2E
66
66
66
6C
38
00
00
ENDCHAR

STARTCHAR CODE236
ENCODING 236
SWIDTH 401 0
DWIDTH 8 0
BBX 8 16 0 -1
BITMAP
00
00
00
00
00
3B
6D
6D
6D
5D
37
00
00
00
00
00
ENDCHAR

STARTCHAR CODE237
ENCODING 237
SWIDTH 401 0
DWIDTH 8 0
BBX 8 16 0 -1
BITMAP
00
00
00
00
00
00
03
06
1E
2E
36
36
3C
60
00
00
ENDCHAR

STARTCHAR CODE238
ENCODING 238
SWIDTH 401 0
DWIDTH 8 0
BBX 8 16 0 -1
BITMAP
00
00
00
00
00
00
00
0E
1B
18
2E
30
36
1C
00
00
ENDCHAR

STARTCHAR CODE239
ENCODING 239
SWIDTH 401 0
DWIDTH 8 0
BBX 8 16 0 -1
BITMAP
00
00
0E
1B
31
31
31
31
61
61
63
63
C6
CC
00
00
ENDCHAR

STARTCHAR CODE240
ENCODING 240
SWIDTH 401 0
DWIDTH 8 0
BBX 8 16 0 -1
BITMAP
00
00
00
00
00
00
3F
00
3F
00
3F
00
00
00
00
00
ENDCHAR

STARTCHAR CODE241
ENCODING 241
SWIDTH 401 0
DWIDTH 8 0
BBX 8 16 0 -1
BITMAP
00
00
00
00
00
00
0C
0C
3F
0C
0C
00
3F
00
00
00
ENDCHAR

STARTCHAR CODE242
ENCODING 242
SWIDTH 401 0
DWIDTH 8 0
BBX 8 16 0 -1
BITMAP
00
00
00
00
00
0C
0C
06
06
0C
18
00
3F
00
00
00
ENDCHAR

STARTCHAR CODE243
ENCODING 243
SWIDTH 401 0
DWIDTH 8 0
BBX 8 16 0 -1
BITMAP
00
00
00
00
00
06
0C
18
18
0C
0C
00
3F
00
00
00
ENDCHAR

STARTCHAR CODE244
ENCODING 244
SWIDTH 401 0
DWIDTH 8 0
BBX 8 16 0 -1
BITMAP
00
00
00
0E
16
18
18
18
18
0C
0C
0C
0C
0C
0C
00
ENDCHAR

STARTCHAR CODE245
ENCODING 245
SWIDTH 401 0
DWIDTH 8 0
BBX 8 16 0 -1
BITMAP
00
18
18
18
18
18
18
0C
0C
0C
0C
2C
38
00
00
00
ENDCHAR

STARTCHAR CODE246
ENCODING 246
SWIDTH 401 0
DWIDTH 8 0
BBX 8 16 0 -1
BITMAP
00
00
00
00
00
1C
00
00
7F
00
00
1C
00
00
00
00
ENDCHAR

STARTCHAR CODE247
ENCODING 247
SWIDTH 401 0
DWIDTH 8 0
BBX 8 16 0 -1
BITMAP
00
00
00
00
00
00
3B
6E
3B
6E
00
00
00
00
00
00
ENDCHAR

STARTCHAR CODE248
ENCODING 248
SWIDTH 401 0
DWIDTH 8 0
BBX 8 16 0 -1
BITMAP
00
38
6C
6C
38
00
00
00
00
00
00
00
00
00
00
00
ENDCHAR

STARTCHAR CODE249
ENCODING 249
SWIDTH 401 0
DWIDTH 8 0
BBX 8 16 0 -1
BITMAP
00
00
00
00
00
00
1C
3E
3E
1C
00
00
00
00
00
00
ENDCHAR

STARTCHAR CODE250
ENCODING 250
SWIDTH 401 0
DWIDTH 8 0
BBX 8 16 0 -1
BITMAP
00
00
00
00
00
00
00
1C
1C
00
00
00
00
00
00
00
ENDCHAR

STARTCHAR CODE251
ENCODING 251
SWIDTH 401 0
DWIDTH 8 0
BBX 8 16 0 -1
BITMAP
0F
0C
0C
0C
0C
0C
0C
0C
0C
0C
D8
58
58
38
18
00
ENDCHAR

STARTCHAR CODE252
ENCODING 252
SWIDTH 401 0
DWIDTH 8 0
BBX 8 16 0 -1
BITMAP
00
00
16
1C
2C
2C
06
00
00
00
00
00
00
00
00
00
ENDCHAR

STARTCHAR CODE253
ENCODING 253
SWIDTH 401 0
DWIDTH 8 0
BBX 8 16 0 -1
BITMAP
00
0C
16
06
0C
18
1E
00
00
00
00
00
00
00
00
00
ENDCHAR

STARTCHAR CODE254
ENCODING 254
SWIDTH 401 0
DWIDTH 8 0
BBX 8 16 0 -1
BITMAP
00
00
00
3E
3E
3E
3E
3E
3E
3E
3E
3E
3E
00
00
00
ENDCHAR

STARTCHAR CODE255
ENCODING 255
SWIDTH 401 0
DWIDTH 8 0
BBX 8 16 0 -1
BITMAP
00
00
00
00
00
00
00
00
00
00
00
00
00
00
00
00
ENDCHAR
ENDFONT
